<?xml version='1.0' encoding='iso-8859-1'?>
<svg version="1.1" xmlns="http://www.w3.org/2000/svg" viewBox="0 0 64 64" xmlns:xlink="http://www.w3.org/1999/xlink" enable-background="new 0 0 64 64">
	<path d="M62,8H2c-1.105,0-2,0.895-2,2v44c0,1.105,0.895,2,2,2h60c1.105,0,2-0.895,2-2V10C64,8.895,63.105,8,62,8z M62,52.58    L41.42,32L62,11.42V52.58z M60.58,10L32,38.58L3.42,10H60.58z M2,11.42L22.58,32L2,52.58V11.42z M24,33.42l7.283,7.283    c0.198,0.198,0.458,0.295,0.717,0.293c0.259,0.002,0.519-0.095,0.717-0.293L40,33.42L60.58,54H3.42L24,33.42z" style="fill:#54a59c" />
</svg>
