<?xml version="1.0" encoding="iso-8859-1"?>
<!-- Generator: Adobe Illustrator 18.0.0, SVG Export Plug-In . SVG Version: 6.00 Build 0)  -->
<!DOCTYPE svg PUBLIC "-//W3C//DTD SVG 1.1//EN" "http://www.w3.org/Graphics/SVG/1.1/DTD/svg11.dtd">
<svg version="1.1" id="Capa_1" xmlns="http://www.w3.org/2000/svg" xmlns:xlink="http://www.w3.org/1999/xlink" x="0px" y="0px"
	 viewBox="0 0 489.43 489.43" style="enable-background:new 0 0 489.43 489.43;" xml:space="preserve">
<g>
	<g id="XMLID_587_">
		<path d="M244.715,489.43l-6.457-7.954C232.013,473.783,85.36,291.532,85.36,159.355C85.36,71.487,156.847,0,244.715,0
			S404.07,71.487,404.07,159.355c0,132.177-146.653,314.428-152.899,322.121L244.715,489.43z M244.715,16.636
			c-78.7,0-142.72,64.02-142.72,142.72c0,110.975,114.065,266.171,142.72,303.391c28.654-37.219,142.72-192.416,142.72-303.391
			C387.435,80.656,323.415,16.636,244.715,16.636z" style="fill:#54a59c"/>
	</g>
	<g id="XMLID_713_">
		<path d="M223.492,225.905c-3.039-0.88-6.064-1.97-8.979-3.228c-6.108-2.639-11.859-6.078-17.101-10.223l10.325-13.044
			c4.101,3.243,8.601,5.933,13.371,7.998c2.283,0.989,4.639,1.832,7.009,2.516L223.492,225.905z" style="fill:#54a59c"/>
	</g>
	<g id="XMLID_711_">
		<path d="M248.166,228.901v-16.636c30,0,56.177-26.454,56.177-56.454h16.636C320.979,193.811,285.166,228.901,248.166,228.901z" style="fill:#54a59c"/>
	</g>
	<g id="XMLID_663_">
		<path d="M244.715,265.844c-62.42,0-113.207-50.787-113.207-113.207S182.295,39.43,244.715,39.43s113.207,50.787,113.207,113.207
			S307.135,265.844,244.715,265.844z M244.715,56.066c-53.252,0-96.571,43.32-96.571,96.571s43.32,96.571,96.571,96.571
			s96.571-43.32,96.571-96.571S297.967,56.066,244.715,56.066z" style="fill:#54a59c"/>
	</g>
</g>

</svg>
